:SAMPLES-PER-SECOND 30
:FULLY-SPECIFIED
:DEGREES
999
root  -8.62364 15.722 7.2183 -123.78 -13.8181 -173.067
Spine  6.43835 27.826 9.84046
Spine1  0.841028 4.22314 6.44107
Neck  3.97569e-016 0 -2.38542e-015
Head  14.9638 6.42528 40.6035
R_Clavicle  0.502782 -1.83892 2.59167
R_UpperArm  64.412 -20.8644 73.7289
R_Forearm  10.1574 32.1898 -31.555
R_Hand  -9.65391 16.085 -61.0894
L_Clavicle  -0.660847 9.40841 6.7482
L_UpperArm  -50.5431 46.9253 41.7707
L_Forearm  -1.68174 6.34303 18.1396
L_Hand  29.2087 -24.9202 -113.744
L_Thigh  -10.0786 28.4834 7.44685
L_Calf  4.6105 -4.15775 31.5851
L_Foot  -1.59707 -7.73959 5.05545
L_Toe0  0.505156 0.0223096 -6.1362
R_Thigh  -14.6377 -53.4015 50.3166
R_Calf  -0.945605 9.05458 52.5586
R_Foot  1.34611 -4.61354 -17.595
R_Toe0  -1.78853 -0.272788 -17.3235
1000
root  -8.33188 15.7811 5.39705 -136.282 -22.0293 -167.796
Spine  4.32424 21.9144 9.20241
Spine1  0.478318 9.83352 8.35712
Neck  3.97569e-016 0 -2.38542e-015
Head  17.4669 2.77058 41.9058
R_Clavicle  0.487122 -9.86053 2.73109
R_UpperArm  56.6318 -23.8348 76.0938
R_Forearm  15.9095 19.2264 -16.87
R_Hand  -9.11186 13.584 -63.2456
L_Clavicle  -0.558601 12.9023 7.10641
L_UpperArm  -72.6574 58.8956 45.2775
L_Forearm  32.2524 3.76103 5.93161
L_Hand  30.649 -31.503 -98.0853
L_Thigh  -13.371 36.2859 10.5609
L_Calf  -11.7083 -5.7898 40.8724
L_Foot  9.59391 14.494 13.5357
L_Toe0  0.505156 0.0226576 -6.1362
R_Thigh  -8.14265 -54.6837 40.846
R_Calf  -0.323651 9.4671 53.7794
R_Foot  1.87093 -4.01945 -20.7178
R_Toe0  -1.78853 -0.272788 -17.3235
1001
root  -7.95113 16.0796 3.25393 -150.5 -28.2871 -161.922
Spine  3.56712 16.94 8.73144
Spine1  0.99483 13.8614 9.59864
Neck  3.97569e-016 0 -2.38542e-015
Head  18.7829 0.711882 41.0746
R_Clavicle  0.45488 -19.0805 3.27922
R_UpperArm  46.7281 -25.4434 80.3526
R_Forearm  21.3947 2.62149 -2.15459
R_Hand  -7.88681 11.418 -60.9625
L_Clavicle  -0.411633 17.2247 6.77658
L_UpperArm  -67.8637 64.8843 58.4787
L_Forearm  47.4568 -0.94593 -1.29964
L_Hand  31.5971 -38.8304 -84.2849
L_Thigh  -11.701 43.7989 18.3967
L_Calf  -41.9644 -8.16715 47.3267
L_Foot  50.999 51.1712 54.3829
L_Toe0  0.505156 0.0230039 -6.1362
R_Thigh  -3.56595 -57.3184 31.0533
R_Calf  2.44597 9.771 54.7764
R_Foot  2.00965 -4.8472 -22.2103
R_Toe0  -1.78853 -0.272788 -17.3235
1002
root  -8.23619 16.4067 1.78453 -166.367 -34.3476 -153.109
Spine  4.11476 12.7188 11.8151
Spine1  2.57665 16.4252 12.2038
Neck  3.97569e-016 0 -2.38542e-015
Head  16.5241 0.6542 40.3732
R_Clavicle  0.330506 -26.9754 4.14672
R_UpperArm  39.9631 -26.9851 81.3586
R_Forearm  21.1477 -15.3728 12.8369
R_Hand  -7.18536 10.3605 -58.9587
L_Clavicle  -0.273821 21.7478 6.58538
L_UpperArm  -62.9178 67.8047 68.6574
L_Forearm  53.5931 -4.91918 -5.71653
L_Hand  27.5012 -40.8194 -72.7936
L_Thigh  -5.22872 48.7339 29.0437
L_Calf  -51.3129 -7.12076 48.0122
L_Foot  68.0183 52.0417 72.2476
L_Toe0  0.505156 0.0233482 -6.13619
R_Thigh  0.399445 -60.1226 16.5548
R_Calf  11.2116 10.3551 53.5494
R_Foot  1.64665 -8.1831 -21.8788
R_Toe0  -1.78853 -0.272788 -17.3235
1003
root  -8.61259 16.3681 1.34573 176.613 -39.1635 -143.886
Spine  5.00436 6.71722 16.5799
Spine1  5.12945 18.2168 14.4994
Neck  3.97569e-016 0 -2.38542e-015
Head  12.3692 -0.652489 41.7715
R_Clavicle  0.180126 -31.1577 4.92672
R_UpperArm  31.4843 -31.9675 83.277
R_Forearm  10.7643 -24.9603 18.5395
R_Hand  -9.38035 18.7946 -57.7423
L_Clavicle  -0.104412 26.2301 6.85333
L_UpperArm  -56.5444 69.438 77.505
L_Forearm  58.4761 -8.10301 -9.47649
L_Hand  21.4994 -39.8441 -61.1921
L_Thigh  2.54373 47.6424 40.2588
L_Calf  -36.9328 -4.97071 44.2826
L_Foot  36.6121 46.6326 36.8687
L_Toe0  0.505156 0.0236904 -6.13619
R_Thigh  -5.27532 -60.9365 6.21534
R_Calf  22.9036 11.6943 44.3142
R_Foot  1.29183 -7.78872 -19.5653
R_Toe0  -1.78853 -0.272788 -17.3235
1004
root  -8.912 16.0731 0.911609 160.438 -43.6216 -139.501
Spine  5.29499 -0.327691 17.0164
Spine1  7.20099 18.1663 15.3691
Neck  3.97569e-016 0 -2.38542e-015
Head  10.6191 -3.95498 43.7265
R_Clavicle  0.153308 -30.1181 5.64748
R_UpperArm  11.9491 -46.9913 102.182
R_Forearm  -17.2352 -1.28082 -7.31176
R_Hand  -27.142 43.6228 -74.8411
L_Clavicle  0.0214341 28.8516 7.12269
L_UpperArm  -47.8324 69.2501 84.7943
L_Forearm  63.3698 -7.98466 -9.55779
L_Hand  16.1623 -37.9781 -50.1254
L_Thigh  2.84197 45.5682 48.8611
L_Calf  -26.8037 -6.3911 45.1051
L_Foot  3.5097 5.37541 11.5009
L_Toe0  0.505156 0.0240304 -6.13619
R_Thigh  -2.82293 -59.1653 0.865691
R_Calf  19.9785 10.866 35.8023
R_Foot  1.18262 -5.08261 -16.9546
R_Toe0  -1.78853 -0.272788 -17.3235
1005
root  -9.52727 15.4792 0.471913 145.971 -49.6221 -139.366
Spine  4.8347 -6.46591 14.4373
Spine1  7.75696 14.7902 16.4377
Neck  3.97569e-016 0 -2.38542e-015
Head  12.3598 -5.55956 43.3061
R_Clavicle  0.295505 -25.6835 6.00218
R_UpperArm  8.46486 -51.5098 101.004
R_Forearm  -30.6838 3.95436 -10.6669
R_Hand  -25.65 48.694 -67.8642
L_Clavicle  -0.00812884 29.1985 6.78038
L_UpperArm  -33.36 66.9949 90.2432
L_Forearm  59.1248 -5.63401 -4.38743
L_Hand  16.3242 -40.7811 -46.6498
L_Thigh  0.200851 42.02 56.5599
L_Calf  -23.8304 -9.79861 49.1277
L_Foot  5.47619 8.52288 11.8709
L_Toe0  0.505156 0.0243679 -6.13619
R_Thigh  6.69841 -55.274 -3.20326
R_Calf  13.4709 9.82443 32.2032
R_Foot  1.02182 -3.6298 -14.3443
R_Toe0  -1.78853 -0.272788 -17.3235
1006
root  -10.4527 15.0595 0.227308 128.514 -50.9399 -134.796
Spine  4.96971 -5.8455 18.5476
Spine1  6.7082 6.67915 17.8507
Neck  3.97569e-016 0 -2.38542e-015
Head  13.5435 -3.17796 40.9615
R_Clavicle  0.456466 -21.2122 5.66652
R_UpperArm  16.2849 -54.8584 89.9856
R_Forearm  -37.9108 3.87038 -8.50874
R_Hand  -27.0024 50.9019 -68.3808
L_Clavicle  -0.154302 29.1289 5.61897
L_UpperArm  -10.0152 57.98 90.5974
L_Forearm  38.0982 -2.68824 4.73288
L_Hand  30.1517 -52.343 -61.0788
L_Thigh  5.28328 37.3204 64.0268
L_Calf  -8.56066 -7.07364 46.4078
L_Foot  6.51766 8.99215 14.8604
L_Toe0  0.505156 0.0247028 -6.13618
R_Thigh  21.4287 -48.3377 -15.3334
R_Calf  7.97643 9.42704 30.7506
R_Foot  1.67537 2.01264 -11.4231
R_Toe0  -1.78853 -0.272788 -17.3235
1007
root  -11.5456 14.5961 0.0551408 110.558 -56.227 -131.987
Spine  5.66389 -3.22157 20.5227
Spine1  4.14811 -4.97075 18.0195
Neck  3.97569e-016 0 -2.38542e-015
Head  10.5539 0.463646 39.5845
R_Clavicle  0.570833 -16.936 5.18344
R_UpperArm  20.8408 -57.6362 79.7922
R_Forearm  -40.1277 1.78271 -6.59109
R_Hand  -35.8779 54.9984 -78.9574
L_Clavicle  -0.398008 29.0515 3.65803
L_UpperArm  -1.10513 42.0634 81.4747
L_Forearm  12.5144 6.3572 3.25914
L_Hand  41.2665 -60.4618 -70.4617
L_Thigh  14.7996 33.215 69.6395
L_Calf  -8.21278 -4.26441 44.1713
L_Foot  5.73273 6.62843 15.1953
L_Toe0  0.505156 0.0250349 -6.13618
R_Thigh  30.9187 -43.4888 -18.1774
R_Calf  0.161226 8.32362 26.7255
R_Foot  3.05648 9.90344 -7.20858
R_Toe0  -1.78853 -0.272788 -17.3235
1008
root  -13.2478 14.184 0.218892 80.365 -66.3225 -114.628
Spine  4.98078 -3.82421 17.8617
Spine1  1.77325 -13.7658 19.1429
Neck  3.97569e-016 0 -2.38542e-015
Head  5.58141 2.22271 39.9528
R_Clavicle  0.712246 -11.9239 5.24837
R_UpperArm  22.5006 -62.2885 71.0105
R_Forearm  -42.1754 0.163789 -5.51879
R_Hand  -49.9836 58.2072 -95.3655
L_Clavicle  -0.610031 27.3324 1.73843
L_UpperArm  -3.84741 30.1707 72.4412
L_Forearm  1.55197 5.28587 -2.97726
L_Hand  2.78797 -40.419 -7.73595
L_Thigh  15.9556 30.4164 72.3254
L_Calf  -13.4141 -4.30412 45.088
L_Foot  6.78225 10.1388 14.3069
L_Toe0  0.505156 0.0253641 -6.13618
R_Thigh  35.8122 -43.2147 -14.9095
R_Calf  -6.48093 6.8842 21.7444
R_Foot  5.14508 18.6325 -5.75081
R_Toe0  -1.78853 -0.272788 -17.3235
1009
root  -15.6068 14.0608 1.11111 23.3081 -69.4687 -68.7066
Spine  3.06287 -9.06797 12.9686
Spine1  0.294209 -18.971 18.4583
Neck  3.97569e-016 0 -2.38542e-015
Head  2.62508 2.30293 40.7345
R_Clavicle  0.89359 -7.34117 5.66801
R_UpperArm  31.9097 -65.8113 57.6306
R_Forearm  -43.4498 -2.2769 -2.43442
R_Hand  -66.9806 57.9586 -115.823
L_Clavicle  -0.592929 22.9889 1.02917
L_UpperArm  -5.89058 21.8633 53.9962
L_Forearm  -19.5609 16.1123 13.8735
L_Hand  0.446317 -3.01315 6.93835
L_Thigh  11.5774 30.2486 71.9794
L_Calf  -15.4904 -4.23163 49.0771
L_Foot  6.13876 10.0969 12.2509
L_Toe0  0.505156 0.0256902 -6.13617
R_Thigh  33.0687 -45.9905 -5.6981
R_Calf  -10.5553 6.01488 18.8314
R_Foot  6.42322 23.7273 -6.13835
R_Toe0  -1.78853 -0.272788 -17.3235
1010
root  -17.9306 14.4549 2.79606 -20.3206 -57.1225 -36.3386
Spine  1.29866 -14.6263 9.33512
Spine1  -0.460111 -22.6915 15.4421
Neck  3.97569e-016 0 -2.38542e-015
Head  2.007 2.19545 40.6605
R_Clavicle  1.03987 -3.89805 5.92789
R_UpperArm  45.6894 -67.1705 44.0765
R_Forearm  -39.8762 -4.49187 1.61214
R_Hand  -80.9947 50.999 -137.08
L_Clavicle  -0.477775 17.1954 0.963346
L_UpperArm  -11.9346 18.2901 44.0388
L_Forearm  -52.8562 15.9248 19.748
L_Hand  1.40956 6.77379 12.4327
L_Thigh  11.0943 31.7127 70.5122
L_Calf  -19.4503 -4.6508 50.4912
L_Foot  4.65905 7.3228 10.5037
L_Toe0  0.505156 0.0260131 -6.13617
R_Thigh  25.8246 -47.4742 4.18714
R_Calf  -12.7512 5.95868 18.6007
R_Foot  1.10917 3.8637 -0.297096
R_Toe0  -1.78853 -0.272788 -17.3235
1011
root  -19.6465 15.2679 5.10965 -37.3037 -43.9758 -30.5669
Spine  -0.306114 -17.6192 9.30057
Spine1  -0.576012 -24.1106 12.3108
Neck  3.97569e-016 0 -2.38542e-015
Head  1.63162 2.05943 39.2261
R_Clavicle  1.18812 -0.230261 6.09983
R_UpperArm  58.5646 -67.4268 32.9388
R_Forearm  -29.2562 -6.32854 5.5677
R_Hand  -80.0614 38.1198 -149.482
L_Clavicle  -0.331269 11.4005 0.18776
L_UpperArm  -22.6938 18.9879 42.2672
L_Forearm  -49.6506 3.66615 4.23316
L_Hand  0.224442 4.22784 3.13618
L_Thigh  9.97717 32.5728 66.9705
L_Calf  -21.1069 -5.25635 48.505
L_Foot  5.21006 9.04847 10.3962
L_Toe0  0.505156 0.0263325 -6.13617
R_Thigh  21.4984 -47.1436 9.82979
R_Calf  -4.25408 5.61242 17.4653
R_Foot  -14.5891 -37.5895 7.92498
R_Toe0  -1.78853 -0.272788 -17.3235
1012
root  -20.4918 16.3896 7.64471 -50.6924 -35.7947 -26.8536
Spine  -0.653819 -16.5459 10.7184
Spine1  -0.191191 -22.0887 10.2023
Neck  3.97569e-016 0 -2.38542e-015
Head  0.839158 1.72602 37.1276
R_Clavicle  1.28577 3.86021 5.92085
R_UpperArm  70.7967 -64.9445 24.2786
R_Forearm  -10.1923 -8.71119 10.1697
R_Hand  -63.8044 23.7711 -153.606
L_Clavicle  -0.0957299 6.82679 -1.12924
L_UpperArm  -39.3158 20.8955 38.3537
L_Forearm  -39.5868 -5.84926 -6.80694
L_Hand  -0.0989539 -0.76493 -2.80725
L_Thigh  9.26996 32.6845 63.4681
L_Calf  -18.9388 -5.01764 46.2308
L_Foot  5.66874 10.3883 10.4359
L_Toe0  0.505156 0.0266482 -6.13617
R_Thigh  24.2909 -43.9307 7.12814
R_Calf  5.29348 5.7167 17.8415
R_Foot  -21.9967 -43.3335 17.9101
R_Toe0  -1.78853 -0.272788 -17.3235
1013
root  -20.642 17.7541 10.3439 -64.1733 -27.3583 -22.7438
Spine  -0.280586 -14.2198 10.8469
Spine1  0.147569 -19.4169 9.47382
Neck  3.97569e-016 0 -2.38542e-015
Head  -0.0195703 2.10386 35.7219
R_Clavicle  1.07018 6.83603 4.6216
R_UpperArm  80.3347 -62.1381 21.5213
R_Forearm  17.2554 -6.55749 11.123
R_Hand  -39.7425 10.6206 -153.674
L_Clavicle  0.0829732 4.18177 -1.88083
L_UpperArm  -54.8757 21.3632 34.1248
L_Forearm  -26.1932 -16.0208 -19.3786
L_Hand  -0.0884003 -3.56013 -5.80906
L_Thigh  9.0698 33.3604 59.2538
L_Calf  -18.196 -4.57259 45.3442
L_Foot  5.09789 8.62977 10.486
L_Toe0  0.505156 0.0269603 -6.13616
R_Thigh  24.0221 -40.7502 5.97264
R_Calf  2.50681 5.58055 17.451
R_Foot  -11.1055 -25.6102 9.32896
R_Toe0  -1.78853 -0.272788 -17.3235
